<svg width="1087.1199951171875px" height="183.28001708984374px" xmlns="http://www.w3.org/2000/svg"
     viewBox="-293.55999755859375 -16.64000854492187 1087.1199951171875 183.28001708984374"
     style="background: rgba(0, 0, 0, 0) none repeat scroll 0% 0%;" preserveAspectRatio="xMidYMid">
    <defs>
        <filter id="editing-extrusion" x="-100%" y="-100%" width="300%" height="300%">
            <feFlood result="color1" flood-color="#2a548b"></feFlood>
            <feConvolveMatrix order="5,5" divisor="1" kernelMatrix="1 0 0 0 0 0 1 0 0 0 0 0 1 0 0 0 0 0 1 0 0 0 0 0 1"
                              in="SourceAlpha" result="extrude"></feConvolveMatrix>
            <feComposite in="color1" in2="extrude" result="comp-extrude" operator="in"></feComposite>
            <feOffset dx="2.5" dy="2.5" in="comp-extrude" result="offset-extrude"></feOffset>
            <feMerge>
                <feMergeNode in="offset-extrude"></feMergeNode>
                <feMergeNode in="SourceGraphic"></feMergeNode>
            </feMerge>
        </filter>
    </defs>
    <g filter="url(#editing-extrusion)">
        <g transform="translate(-143.3463897705078, 112.36914253234863)">
            <path d="M4.24-62.62L4.24-62.62L4.24-62.62Q5.66-65.45 8.74-67.01L8.74-67.01L8.74-67.01Q11.82-68.58 16.06-68.58L16.06-68.58L16.06-68.58Q22.73-68.58 26.71-63.78L26.71-63.78L26.71-63.78Q30.70-58.98 30.70-48.48L30.70-48.48L30.70-12.42L53.83-66.56L65.75-66.56L68.48-15.45L68.18-12.52L92.21-66.56L106.05-66.56L73.73 0L52.22 0L50.20-30.70L36.87 0L12.52 0L9.49-48.48L9.49-48.48Q9.19-53.93 7.73-57.52L7.73-57.52L7.73-57.52Q6.26-61.11 4.24-62.62ZM140.90-17.07L140.90-17.07L140.90-17.07Q143.42-15.35 143.42-11.56L143.42-11.56L143.42-11.56Q143.42-7.78 141.50-5.35L141.50-5.35L141.50-5.35Q139.58-2.93 136.45-1.31L136.45-1.31L136.45-1.31Q129.99 2.02 123.02 2.02L123.02 2.02L123.02 2.02Q116.05 2.02 111.96 0.51L111.96 0.51L111.96 0.51Q107.87-1.01 105.14-3.84L105.14-3.84L105.14-3.84Q99.79-9.19 99.79-18.99L99.79-18.99L99.79-18.99Q99.79-34.24 108.07-43.53L108.07-43.53L108.07-43.53Q116.96-53.53 132.41-53.53L132.41-53.53L132.41-53.53Q142.01-53.53 146.75-49.49L146.75-49.49L146.75-49.49Q150.29-46.46 150.29-41.51L150.29-41.51L150.29-41.51Q150.29-23.74 119.58-23.74L119.58-23.74L119.58-23.74Q119.18-21.11 119.18-18.89L119.18-18.89L119.18-18.89Q119.18-14.24 121.25-12.47L121.25-12.47L121.25-12.47Q123.32-10.71 127.16-10.71L127.16-10.71L127.16-10.71Q131.00-10.71 135.09-12.47L135.09-12.47L135.09-12.47Q139.18-14.24 140.90-17.07ZM120.29-28.08L120.29-28.08L120.29-28.08Q127.46-28.08 131.60-32.52L131.60-32.52L131.60-32.52Q135.74-36.76 135.74-43.53L135.74-43.53L135.74-43.53Q135.74-45.85 134.89-47.12L134.89-47.12L134.89-47.12Q134.03-48.38 132.31-48.38L132.31-48.38L132.31-48.38Q130.59-48.38 129.13-47.72L129.13-47.72L129.13-47.72Q127.66-47.07 126.15-44.84L126.15-44.84L126.15-44.84Q122.41-39.79 120.29-28.08ZM152.41-4.85L152.41-4.85L164.93-70.70L185.44-72.72L182.31-57.27L182.31-57.27Q181.19-52.52 179.78-49.19L179.78-49.19L179.78-49.19Q182.00-52.02 186.85-53.13L186.85-53.13L186.85-53.13Q188.26-53.53 189.98-53.53L189.98-53.53L189.98-53.53Q199.37-53.53 204.53-47.82L204.53-47.82L204.53-47.82Q209.68-42.12 209.68-31.11L209.68-31.11L209.68-31.11Q209.68-16.77 201.50-7.78L201.50-7.78L201.50-7.78Q192.71 2.02 176.75 2.02L176.75 2.02L176.75 2.02Q165.74 2.02 157.46-1.62L157.46-1.62L157.46-1.62Q154.53-2.93 152.41-4.85ZM178.06-35.35L172.71-5.76L172.71-5.76Q174.83-3.94 177.46-3.94L177.46-3.94L177.46-3.94Q180.08-3.94 181.60-4.95L181.60-4.95L181.60-4.95Q183.11-5.96 184.22-7.98L184.22-7.98L184.22-7.98Q187.25-13.43 189.68-30.10L189.68-30.10L189.68-30.10Q190.39-34.84 190.39-39.59L190.39-39.59L190.39-39.59Q190.39-44.34 189.32-45.85L189.32-45.85L189.32-45.85Q188.26-47.37 186.24-47.37L186.24-47.37L186.24-47.37Q180.08-47.37 178.06-35.35L178.06-35.35ZM302.09-41.91L302.09-41.91L302.09-41.91Q302.09 1.11 255.43 1.11L255.43 1.11L255.43 1.11Q247.96 1.11 235.63-0.71L235.63-0.71L246.95-60.40L246.95-60.40Q247.75-64.44 248.26-66.76L248.26-66.76L248.26-66.76Q263.61-67.87 270.43-67.87L270.43-67.87L270.43-67.87Q277.25-67.87 283.51-66.46L283.51-66.46L283.51-66.46Q289.77-65.04 293.91-61.91L293.91-61.91L293.91-61.91Q302.09-55.75 302.09-41.91ZM281.29-45.65L281.29-45.65L281.29-45.65Q281.29-60.70 270.48-60.70L270.48-60.70L269.47-60.70L269.47-60.70Q268.96-60.70 268.46-60.60L268.46-60.60L258.06-6.36L258.06-6.36Q258.46-6.16 258.86-6.16L258.86-6.16L259.67-6.16L259.67-6.16Q263.41-6.16 267.30-8.48L267.30-8.48L267.30-8.48Q271.19-10.81 274.22-15.55L274.22-15.55L274.22-15.55Q281.29-26.56 281.29-45.65ZM311.64-3.03L311.64-3.03L311.64-3.03Q309.26-5.66 308.20-9.80L308.20-9.80L308.20-9.80Q307.14-13.94 307.14-20.71L307.14-20.71L307.14-20.71Q307.14-27.47 309.46-33.63L309.46-33.63L309.46-33.63Q311.79-39.79 316.03-44.24L316.03-44.24L316.03-44.24Q324.72-53.53 339.06-53.53L339.06-53.53L339.06-53.53Q344.21-53.53 347.95-51.81L347.95-51.81L365.22-53.53L357.74-14.14L357.74-14.14Q357.44-12.93 357.44-10.71L357.44-10.71L357.44-10.71Q357.44-8.48 358.80-7.07L358.80-7.07L358.80-7.07Q360.17-5.66 362.19-5.45L362.19-5.45L362.19-5.45Q361.18-2.02 357.49 0L357.49 0L357.49 0Q353.80 2.02 349.66 2.02L349.66 2.02L349.66 2.02Q345.52 2.02 342.74 0.45L342.74 0.45L342.74 0.45Q339.97-1.11 339.16-3.74L339.16-3.74L339.16-3.74Q337.54-1.21 334.11 0.40L334.11 0.40L334.11 0.40Q330.67 2.02 326.08 2.02L326.08 2.02L326.08 2.02Q321.48 2.02 317.75 0.81L317.75 0.81L317.75 0.81Q314.01-0.40 311.64-3.03ZM332.95-44.04L332.95-44.04L332.95-44.04Q331.79-42.22 330.78-39.14L330.78-39.14L330.78-39.14Q329.77-36.06 328.10-27.83L328.10-27.83L328.10-27.83Q326.43-19.59 326.43-13.74L326.43-13.74L326.43-13.74Q326.43-7.88 327.34-6.16L327.34-6.16L327.34-6.16Q328.25-4.44 329.87-4.44L329.87-4.44L329.87-4.44Q333.10-4.44 335.47-7.52L335.47-7.52L335.47-7.52Q337.85-10.61 338.75-16.06L338.75-16.06L344.11-45.65L344.11-45.65Q341.99-47.47 339.51-47.47L339.51-47.47L339.51-47.47Q337.04-47.47 335.57-46.66L335.57-46.66L335.57-46.66Q334.11-45.85 332.95-44.04ZM400.87-35.45L400.87-35.45L400.87-35.45Q402.28-39.19 402.28-42.42L402.28-42.42L402.28-42.42Q402.28-48.38 397.44-48.38L397.44-48.38L397.44-48.38Q394.91-48.38 392.84-46.11L392.84-46.11L392.84-46.11Q390.77-43.83 390.77-41.01L390.77-41.01L390.77-41.01Q390.77-38.99 392.39-37.37L392.39-37.37L392.39-37.37Q394.71-35.15 400.67-31.51L400.67-31.51L400.67-31.51Q406.63-27.88 408.90-24.90L408.90-24.90L408.90-24.90Q411.17-21.92 411.17-17.83L411.17-17.83L411.17-17.83Q411.17-13.74 409.20-10.00L409.20-10.00L409.20-10.00Q407.23-6.26 403.70-3.64L403.70-3.64L403.70-3.64Q396.12 2.02 384.00 2.02L384.00 2.02L384.00 2.02Q377.44 2.02 372.39-1.41L372.39-1.41L372.39-1.41Q367.34-4.75 367.34-8.69L367.34-8.69L367.34-8.69Q367.34-12.63 370.22-14.95L370.22-14.95L370.22-14.95Q373.09-17.27 377.34-17.27L377.34-17.27L377.34-17.27Q381.58-17.27 384.20-15.66L384.20-15.66L384.20-15.66Q382.89-12.32 382.89-10.10L382.89-10.10L382.89-10.10Q382.89-3.43 388.55-3.43L388.55-3.43L388.55-3.43Q390.97-3.43 392.59-4.95L392.59-4.95L392.59-4.95Q394.20-6.46 394.20-9.09L394.20-9.09L394.20-9.09Q394.20-14.24 385.52-19.70L385.52-19.70L385.52-19.70Q378.45-24.34 376.83-26.16L376.83-26.16L376.83-26.16Q374.10-29.39 374.10-33.43L374.10-33.43L374.10-33.43Q374.10-37.47 376.02-41.31L376.02-41.31L376.02-41.31Q377.94-45.15 381.48-47.87L381.48-47.87L381.48-47.87Q388.85-53.53 401.68-53.53L401.68-53.53L401.68-53.53Q408.24-53.53 412.13-50.90L412.13-50.90L412.13-50.90Q416.02-48.28 416.02-43.83L416.02-43.83L416.02-43.83Q416.02-39.39 413.34-36.87L413.34-36.87L413.34-36.87Q410.67-34.34 405.82-34.34L405.82-34.34L405.82-34.34Q402.49-34.34 400.87-35.45ZM470.56-11.21L470.56-11.21L470.56-11.21Q470.56-6.77 475.10-5.45L475.10-5.45L475.10-5.45Q473.99-1.72 469.65 0.30L469.65 0.30L469.65 0.30Q466.01 2.02 462.02 2.02L462.02 2.02L462.02 2.02Q458.04 2.02 455.96 0.96L455.96 0.96L455.96 0.96Q453.89-0.10 452.78-1.82L452.78-1.82L452.78-1.82Q450.97-4.44 450.97-9.39L450.97-9.39L450.97-9.39Q450.97-12.32 452.58-20.40L452.58-20.40L454.00-28.08L454.00-28.08Q455.71-36.87 455.71-40.10L455.71-40.10L455.71-40.10Q455.71-45.75 452.58-45.75L452.58-45.75L452.58-45.75Q448.64-45.75 446.12-40.00L446.12-40.00L446.12-40.00Q445.11-37.77 444.40-34.44L444.40-34.44L437.53 0L417.23 2.02L431.47-70.70L451.77-72.72L450.97-68.68L450.97-68.68Q448.14-53.13 445.71-47.87L445.71-47.87L445.71-47.87Q451.37-53.53 461.77-53.53L461.77-53.53L461.77-53.53Q472.78-53.53 474.80-46.26L474.80-46.26L474.80-46.26Q475.51-43.94 475.51-41.91L475.51-41.91L475.51-41.91Q475.51-39.90 475.36-38.33L475.36-38.33L475.36-38.33Q475.21-36.76 474.70-33.94L474.70-33.94L473.39-26.66L471.06-15.25L471.06-15.25Q470.56-12.93 470.56-11.21ZM481.97-4.85L481.97-4.85L494.50-70.70L515.00-72.72L511.87-57.27L511.87-57.27Q510.76-52.52 509.34-49.19L509.34-49.19L509.34-49.19Q511.57-52.02 516.41-53.13L516.41-53.13L516.41-53.13Q517.83-53.53 519.54-53.53L519.54-53.53L519.54-53.53Q528.94-53.53 534.09-47.82L534.09-47.82L534.09-47.82Q539.24-42.12 539.24-31.11L539.24-31.11L539.24-31.11Q539.24-16.77 531.06-7.78L531.06-7.78L531.06-7.78Q522.27 2.02 506.31 2.02L506.31 2.02L506.31 2.02Q495.30 2.02 487.02-1.62L487.02-1.62L487.02-1.62Q484.09-2.93 481.97-4.85ZM507.63-35.35L502.27-5.76L502.27-5.76Q504.39-3.94 507.02-3.94L507.02-3.94L507.02-3.94Q509.65-3.94 511.16-4.95L511.16-4.95L511.16-4.95Q512.68-5.96 513.79-7.98L513.79-7.98L513.79-7.98Q516.82-13.43 519.24-30.10L519.24-30.10L519.24-30.10Q519.95-34.84 519.95-39.59L519.95-39.59L519.95-39.59Q519.95-44.34 518.89-45.85L518.89-45.85L518.89-45.85Q517.83-47.37 515.81-47.37L515.81-47.37L515.81-47.37Q509.65-47.37 507.63-35.35L507.63-35.35ZM567.32 2.02L567.32 2.02L567.32 2.02Q545.10 2.02 545.10-18.89L545.10-18.89L545.10-18.89Q545.10-33.73 553.28-43.33L553.28-43.33L553.28-43.33Q561.96-53.53 577.01-53.53L577.01-53.53L577.01-53.53Q587.92-53.53 593.48-48.48L593.48-48.48L593.48-48.48Q599.03-43.43 599.03-32.83L599.03-32.83L599.03-32.83Q599.03-16.67 590.35-7.27L590.35-7.27L590.35-7.27Q581.86 2.02 567.32 2.02ZM569.94-41.91L569.94-41.91L569.94-41.91Q568.73-39.19 567.77-35.10L567.77-35.10L567.77-35.10Q566.81-31.01 565.60-24.54L565.60-24.54L565.60-24.54Q564.39-18.08 564.39-10.10L564.39-10.10L564.39-10.10Q564.39-7.47 565.25-5.76L565.25-5.76L565.25-5.76Q566.11-4.04 568.43-4.04L568.43-4.04L568.43-4.04Q570.75-4.04 572.22-5.15L572.22-5.15L572.22-5.15Q573.68-6.26 574.79-8.89L574.79-8.89L574.79-8.89Q576.81-13.53 578.43-22.17L578.43-22.17L578.43-22.17Q580.04-30.81 580.19-34.54L580.19-34.54L580.19-34.54Q580.35-38.28 580.35-41.06L580.35-41.06L580.35-41.06Q580.35-43.83 579.54-45.65L579.54-45.65L579.54-45.65Q578.73-47.47 576.46-47.47L576.46-47.47L576.46-47.47Q574.18-47.47 572.67-46.06L572.67-46.06L572.67-46.06Q571.15-44.64 569.94-41.91ZM609.38-3.03L609.38-3.03L609.38-3.03Q607.01-5.66 605.95-9.80L605.95-9.80L605.95-9.80Q604.89-13.94 604.89-20.71L604.89-20.71L604.89-20.71Q604.89-27.47 607.21-33.63L607.21-33.63L607.21-33.63Q609.54-39.79 613.78-44.24L613.78-44.24L613.78-44.24Q622.46-53.53 636.81-53.53L636.81-53.53L636.81-53.53Q641.96-53.53 645.69-51.81L645.69-51.81L662.96-53.53L655.49-14.14L655.49-14.14Q655.19-12.93 655.19-10.71L655.19-10.71L655.19-10.71Q655.19-8.48 656.55-7.07L656.55-7.07L656.55-7.07Q657.91-5.66 659.93-5.45L659.93-5.45L659.93-5.45Q658.92-2.02 655.24 0L655.24 0L655.24 0Q651.55 2.02 647.41 2.02L647.41 2.02L647.41 2.02Q643.27 2.02 640.49 0.45L640.49 0.45L640.49 0.45Q637.71-1.11 636.91-3.74L636.91-3.74L636.91-3.74Q635.29-1.21 631.86 0.40L631.86 0.40L631.86 0.40Q628.42 2.02 623.83 2.02L623.83 2.02L623.83 2.02Q619.23 2.02 615.49 0.81L615.49 0.81L615.49 0.81Q611.76-0.40 609.38-3.03ZM630.69-44.04L630.69-44.04L630.69-44.04Q629.53-42.22 628.52-39.14L628.52-39.14L628.52-39.14Q627.51-36.06 625.85-27.83L625.85-27.83L625.85-27.83Q624.18-19.59 624.18-13.74L624.18-13.74L624.18-13.74Q624.18-7.88 625.09-6.16L625.09-6.16L625.09-6.16Q626.00-4.44 627.61-4.44L627.61-4.44L627.61-4.44Q630.85-4.44 633.22-7.52L633.22-7.52L633.22-7.52Q635.59-10.61 636.50-16.06L636.50-16.06L641.86-45.65L641.86-45.65Q639.73-47.47 637.26-47.47L637.26-47.47L637.26-47.47Q634.79-47.47 633.32-46.66L633.32-46.66L633.32-46.66Q631.86-45.85 630.69-44.04ZM700.03-28.38L700.03-28.38L700.03-28.38Q703.67-34.84 703.67-41.41L703.67-41.41L703.67-41.41Q703.67-45.75 700.54-45.75L700.54-45.75L700.54-45.75Q698.11-45.75 695.59-41.61L695.59-41.61L695.59-41.61Q692.96-37.47 692.15-32.12L692.15-32.12L686.90 0L665.99 2.02L676.30-51.51L692.96-53.53L691.14-43.33L691.14-43.33Q696.09-53.53 707.20-53.53L707.20-53.53L707.20-53.53Q713.06-53.53 716.24-50.50L716.24-50.50L716.24-50.50Q719.42-47.47 719.42-41.26L719.42-41.26L719.42-41.26Q719.42-35.05 715.33-31.11L715.33-31.11L715.33-31.11Q711.24-27.17 704.27-27.17L704.27-27.17L704.27-27.17Q701.24-27.17 700.03-28.38ZM752.85-53.53L752.85-53.53L752.85-53.53Q756.49-53.53 759.32-52.72L759.32-52.72L759.32-52.72Q759.42-53.13 759.62-54.24L759.62-54.24L760.13-57.37L760.13-57.37Q760.53-59.39 761.14-62.72L761.14-62.72L762.75-70.70L782.85-72.72L771.64-14.14L771.64-14.14Q771.54-13.53 771.54-12.52L771.54-12.52L771.54-10.91L771.54-10.91Q771.54-8.69 772.65-7.02L772.65-7.02L772.65-7.02Q773.76-5.35 775.58-5.35L775.58-5.35L775.58-5.35Q773.56-0.61 767.40 1.41L767.40 1.41L767.40 1.41Q765.28 2.02 762.30 2.02L762.30 2.02L762.30 2.02Q759.32 2.02 756.59 0.45L756.59 0.45L756.59 0.45Q753.86-1.11 753.06-3.74L753.06-3.74L753.06-3.74Q751.44-1.11 748.21 0.45L748.21 0.45L748.21 0.45Q744.98 2.02 740.28 2.02L740.28 2.02L740.28 2.02Q735.58 2.02 731.69 0.81L731.69 0.81L731.69 0.81Q727.81-0.40 725.38-3.03L725.38-3.03L725.38-3.03Q720.94-8.18 720.94-19.90L720.94-19.90L720.94-19.90Q720.94-35.05 729.83-44.24L729.83-44.24L729.83-44.24Q738.71-53.53 752.85-53.53ZM752.15-47.47L752.15-47.47L752.15-47.47Q748.41-47.47 746.39-43.43L746.39-43.43L746.39-43.43Q744.37-39.39 742.30-29.39L742.30-29.39L742.30-29.39Q740.23-19.39 740.23-10.40L740.23-10.40L740.23-10.40Q740.23-4.24 743.87-4.24L743.87-4.24L743.87-4.24Q747.10-4.24 749.37-7.47L749.37-7.47L749.37-7.47Q751.64-10.71 752.55-16.06L752.55-16.06L758.00-45.65L758.00-45.65Q755.88-47.47 752.15-47.47Z"
                  fill="#e1542a"></path>
        </g>
    </g>
    <style>text {
        font-size: 64px;
        font-family: Arial Black;
        dominant-baseline: central;
        text-anchor: middle;
        }
    </style>
</svg>