<?xml version="1.0" encoding="UTF-8" standalone="no"?>
<svg
        xmlns:osb="http://www.openswatchbook.org/uri/2009/osb"
        xmlns:dc="http://purl.org/dc/elements/1.1/"
        xmlns:cc="http://creativecommons.org/ns#"
        xmlns:rdf="http://www.w3.org/1999/02/22-rdf-syntax-ns#"
        xmlns:svg="http://www.w3.org/2000/svg"
        xmlns="http://www.w3.org/2000/svg"
        xmlns:xlink="http://www.w3.org/1999/xlink"
        xmlns:sodipodi="http://sodipodi.sourceforge.net/DTD/sodipodi-0.dtd"
        xmlns:inkscape="http://www.inkscape.org/namespaces/inkscape"
        inkscape:version="1.0 (4035a4fb49, 2020-05-01)"
        sodipodi:docname="HeartOutline.svg"
        id="svg9"
        viewBox="0 0 534 526"
        version="1.1">
  <metadata
          id="metadata15">
    <rdf:RDF>
      <cc:Work
              rdf:about="">
        <dc:format>image/svg+xml</dc:format>
        <dc:type
                rdf:resource="http://purl.org/dc/dcmitype/StillImage"/>
      </cc:Work>
    </rdf:RDF>
  </metadata>
  <defs
          id="defs13">
    <linearGradient
            osb:paint="solid"
            id="linearGradient842">
      <stop
              id="stop840"
              offset="0"
              style="stop-color:#000000;stop-opacity:1;"/>
    </linearGradient>
    <linearGradient
            gradientUnits="userSpaceOnUse"
            y2="263.00715"
            x2="530.79639"
            y1="263.00715"
            x1="3.2043824"
            id="linearGradient844"
            xlink:href="#linearGradient842"
            inkscape:collect="always"/>
  </defs>
  <sodipodi:namedview
          inkscape:current-layer="svg9"
          inkscape:window-maximized="1"
          inkscape:window-y="-8"
          inkscape:window-x="1432"
          inkscape:cy="64.976471"
          inkscape:cx="267"
          inkscape:zoom="1.6159696"
          showgrid="false"
          id="namedview11"
          inkscape:window-height="1017"
          inkscape:window-width="1920"
          inkscape:pageshadow="2"
          inkscape:pageopacity="0"
          guidetolerance="10"
          gridtolerance="10"
          objecttolerance="10"
          borderopacity="1"
          bordercolor="#666666"
          pagecolor="#ffffff"/>
  <g
          inkscape:transform-center-y="51.852203"
          inkscape:transform-center-x="16.539637"
          style="stroke-width:1;stroke-miterlimit:4;stroke-dasharray:none;fill-opacity:1;fill:#000000"
          transform="matrix(0.89091839,0,0,1.0095373,32.528363,-3.7460357)"
          id="HeartOutline">
    <title
            style="fill-opacity:1;fill:url(#linearGradient844)"
            id="title2">Heart Outline, by Adam Stanislav
    </title>
    <desc
            style="fill-opacity:1;fill:url(#linearGradient844)"
            id="desc4">Hand-drawn on a Wacom tablet
    </desc>
    <path
            style="stroke-width:1;stroke-miterlimit:4;stroke-dasharray:none;fill-opacity:1;fill:#000000"
            id="path6"
            d="m 417.221,3.47 c -56.509,0.0527 -105.7,35.891 -139.78,77.469 -13.191,16.094 -39.574,48.283 -39.574,48.283 -0.22075,-6.9693 -0.65655,-14.571 -2,-19.363 -13.99,-49.92 -67,-86.04 -118.69,-82.8 -38.484,2.4 -79.87,19.95 -101.08,53.2 -23.894,37.46 -10.563,85.62 7.609,123.02 34.091,70.179 96.408,119.46 142.6,180.72 28.401,37.662 37.761,84.718 52.678,128.44 -0.82385,12.896 10.965,13.298 6.5,2.0703 -1.5325,-21.48 6.0708,-42.802 12.807,-63.047 15.416,-46.332 44.051,-87.495 81.812,-118.5 53.661,-44.058 121.05,-69.379 168.51,-121.26 36.683,-40.108 57.984,-103.94 27.879,-152.12 C 493.92,23.4573 452.581,3.4383 417.224,3.4713 Z"/>
  </g>
  <g
          id="g864"
          transform="matrix(0.85633716,0,0,0.93572254,37.589766,11.361866)"
          style="fill:#ffffff;fill-opacity:1;stroke-width:1;stroke-miterlimit:4;stroke-dasharray:none"
          inkscape:transform-center-x="15.897645"
          inkscape:transform-center-y="48.060902">
    <title
            id="title858">Heart Outline, by Adam Stanislav
    </title>
    <desc
            id="desc860">Hand-drawn on a Wacom tablet
    </desc>
    <path
            d="m 417.221,3.47 c -56.509,0.0527 -105.7,35.891 -139.78,77.469 -13.191,16.094 -39.574,48.283 -39.574,48.283 -0.22075,-6.9693 -0.65655,-14.571 -2,-19.363 -13.99,-49.92 -67,-86.04 -118.69,-82.8 -38.484,2.4 -79.87,19.95 -101.08,53.2 -23.894,37.46 -10.563,85.62 7.609,123.02 34.091,70.179 96.408,119.46 142.6,180.72 28.401,37.662 37.761,84.718 52.678,128.44 -0.82385,12.896 10.965,13.298 6.5,2.0703 -1.5325,-21.48 6.0708,-42.802 12.807,-63.047 15.416,-46.332 44.051,-87.495 81.812,-118.5 53.661,-44.058 121.05,-69.379 168.51,-121.26 36.683,-40.108 57.984,-103.94 27.879,-152.12 C 493.92,23.4573 452.581,3.4383 417.224,3.4713 Z"
            id="path862"
            style="fill:#ffffff;fill-opacity:1;stroke-width:1;stroke-miterlimit:4;stroke-dasharray:none"/>
  </g>
</svg>
