<svg version="1.0" xmlns="http://www.w3.org/2000/svg" width="700.000000pt" height="765.000000pt"
     viewBox="0 0 700.000000 765.000000" preserveAspectRatio="xMidYMid meet">
    <metadata>
        Created by potrace 1.12, written by Peter Selinger 2001-2015
    </metadata>
    <g transform="translate(0.000000,765.000000) scale(0.100000,-0.100000)" fill="#000000" stroke="none">
        <path d="M3125 7643 c-462 -39 -877 -156 -1285 -363 -878 -447 -1524 -1248
-1751 -2175 -99 -406 -116 -846 -48 -1255 16 -96 84 -362 117 -460 311 -912
1029 -1633 1917 -1926 320 -105 531 -138 880 -138 317 0 506 26 775 106 851
253 1534 900 1809 1715 93 273 131 505 131 793 0 286 -34 503 -122 765 -282
849 -1032 1489 -1876 1600 -131 17 -429 20 -552 5 -275 -34 -539 -122 -778
-260 -503 -288 -860 -765 -979 -1310 -31 -143 -43 -451 -23 -607 77 -615 504
-1170 1068 -1388 411 -158 866 -133 1235 69 435 237 706 664 709 1116 1 63 -4
149 -11 190 -70 420 -351 750 -738 866 -75 23 -108 27 -223 28 -154 1 -237
-17 -362 -79 -275 -136 -446 -428 -399 -680 16 -84 71 -196 123 -248 83 -83
247 -146 349 -134 57 7 134 45 171 84 38 39 68 110 68 160 l0 43 -162 2 c-159
3 -161 3 -142 22 14 15 16 20 5 24 -7 2 -27 17 -44 32 -26 23 -31 36 -35 87
-7 99 44 191 151 270 77 56 164 83 272 83 264 0 511 -203 612 -505 24 -72 27
-95 27 -225 1 -159 -8 -205 -69 -351 -123 -295 -438 -539 -775 -603 -104 -20
-323 -21 -424 -2 -241 47 -460 163 -651 348 -211 203 -354 464 -412 754 -24
125 -24 414 1 539 41 210 127 415 244 587 405 592 1098 872 1817 732 190 -37
441 -139 625 -253 263 -164 514 -423 676 -697 665 -1131 146 -2583 -1126
-3146 -312 -138 -616 -201 -975 -200 -485 0 -948 141 -1367 414 -505 331 -904
842 -1093 1402 -120 355 -162 663 -144 1046 28 578 248 1148 630 1631 105 134
354 383 489 489 601 476 1331 711 2085 669 775 -42 1488 -358 2077 -921 531
-508 896 -1214 1009 -1953 31 -202 38 -642 14 -857 -89 -807 -454 -1556 -1045
-2148 -505 -504 -1149 -859 -1845 -1015 -151 -34 -350 -63 -483 -72 -68 -4
-105 -10 -109 -19 -6 -18 12 -312 20 -321 10 -9 299 21 452 47 1265 217 2373
1034 2950 2175 50 99 108 223 129 275 371 922 382 1886 31 2795 -301 777 -889
1461 -1621 1885 -433 250 -954 415 -1454 460 -105 9 -449 11 -545 3z"></path>
    </g>
</svg>